<svg xml:space="preserve" style="enable-background:new 0 0 256.5 253.117;" viewBox="0 0 256.5 253.117" height="253.117px" width="256.5px" y="0px" x="0px" xmlns:xlink="http://www.w3.org/1999/xlink" xmlns="http://www.w3.org/2000/svg" id="Layer_1" version="1.1">
<g id="Layer_3_2_">
	<path d="M252.754,112.67c0-41.759-33.093-75.609-73.912-75.609
		c-0.636,0-1.262,0.03-1.894,0.048C164.061,14.956,140.43,0.103,113.399,0.103c-40.821,0-73.913,33.854-73.913,75.613
		c0,0.542,0.029,1.076,0.04,1.616C17.2,90.341,2.135,114.89,2.135,143.057c0,41.756,33.092,75.604,73.914,75.604
		c2.321,0,4.615-0.121,6.882-0.334c13.558,16.8,35.07,27.509,58.03,27.509c37.732,0,67.832-28.926,72.33-66.271
		C236.754,166.893,252.754,141.697,252.754,112.67z" style="opacity:0.42;fill:#9FCCFF;enable-background:new    ;"></path>
</g>
<g id="Layer_4">
</g>
<g id="Layer_2_2_">
</g>
<g>
	<g>
		<rect height="57.473" width="88.946" style="fill:#E8FFF9;" y="26.48" x="7.667"></rect>
		<path d="M96.613,85.453H7.667c-0.829,0-1.5-0.671-1.5-1.5V26.48c0-0.829,0.671-1.5,1.5-1.5h88.946
			c0.829,0,1.5,0.671,1.5,1.5v57.473C98.113,84.782,97.441,85.453,96.613,85.453z M9.167,82.453h85.946V27.98H9.167V82.453z" style="fill:#CCCCDE;"></path>
	</g>
	<rect height="3" width="43.789" style="fill:#CCCCDE;" y="39.35" x="18.614"></rect>
	<rect height="3" width="20.526" style="fill:#CCCCDE;" y="50.295" x="18.614"></rect>
	<rect height="3" width="14.369" style="fill:#CCCCDE;" y="50.979" x="52.14"></rect>
	<rect height="3" width="12.657" style="fill:#CCCCDE;" y="38.665" x="70.614"></rect>
	<rect height="3" width="37.118" style="fill:#CCCCDE;" y="60.559" x="18.614"></rect>
</g>
<g>
	<g>
		<polygon points="239.549,68.245 156.332,68.245 156.332,190.512 252.99,190.512 252.99,81.048" style="fill:#FFFFFF;"></polygon>
		<path d="M252.99,192.012h-96.658c-0.828,0-1.5-0.672-1.5-1.5V68.245c0-0.829,0.672-1.5,1.5-1.5h83.217
			c0.385,0,0.756,0.148,1.034,0.414l13.441,12.803c0.298,0.283,0.466,0.675,0.466,1.086v109.464
			C254.49,191.34,253.818,192.012,252.99,192.012z M157.832,189.012h93.658V81.69l-12.541-11.945h-81.117V189.012z" style="fill:#CCCCDE;"></path>
	</g>
	<g>
		<polygon points="252.99,81.048 239.549,81.048 239.549,68.245" style="fill:#FFFFFF;"></polygon>
		<path d="M253.01,82.548c-0.005,0-0.013,0-0.02,0h-13.441c-0.828,0-1.5-0.671-1.5-1.5V68.245
			c0-0.6,0.357-1.143,0.909-1.379s1.19-0.121,1.625,0.293l13.305,12.672c0.377,0.272,0.622,0.716,0.622,1.217
			C254.51,81.876,253.839,82.548,253.01,82.548z M241.049,79.548h8.191l-8.191-7.802V79.548z" style="fill:#CCCCDE;"></path>
	</g>
	<path d="M211.391,89.021h-17.244c-0.828,0-1.5-0.671-1.5-1.5
		s0.672-1.5,1.5-1.5h17.244c0.828,0,1.5,0.671,1.5,1.5S212.219,89.021,211.391,89.021z" style="opacity:0.21;fill:#6E6E96;enable-background:new    ;"></path>
	<g style="opacity:0.21;">
		<path d="M215.369,100.705h-43.773c-0.828,0-1.5-0.671-1.5-1.5s0.672-1.5,1.5-1.5h43.773
			c0.828,0,1.5,0.671,1.5,1.5S216.197,100.705,215.369,100.705z" style="fill:#6E6E96;"></path>
		<path d="M234.604,100.705h-9.945c-0.828,0-1.5-0.671-1.5-1.5s0.672-1.5,1.5-1.5h9.945
			c0.828,0,1.5,0.671,1.5,1.5S235.432,100.705,234.604,100.705z" style="fill:#6E6E96;"></path>
		<path d="M207.412,106.674h-35.816c-0.828,0-1.5-0.671-1.5-1.5s0.672-1.5,1.5-1.5h35.816
			c0.828,0,1.5,0.671,1.5,1.5S208.24,106.674,207.412,106.674z" style="fill:#6E6E96;"></path>
		<path d="M234.604,106.674h-22.549c-0.828,0-1.5-0.671-1.5-1.5s0.672-1.5,1.5-1.5h22.549
			c0.828,0,1.5,0.671,1.5,1.5S235.432,106.674,234.604,106.674z" style="fill:#6E6E96;"></path>
		<path d="M188.512,113.971h-16.916c-0.828,0-1.5-0.671-1.5-1.5s0.672-1.5,1.5-1.5h16.916
			c0.828,0,1.5,0.671,1.5,1.5S189.34,113.971,188.512,113.971z" style="fill:#6E6E96;"></path>
		<path d="M204.759,113.971h-9.95c-0.828,0-1.5-0.671-1.5-1.5s0.672-1.5,1.5-1.5h9.95
			c0.828,0,1.5,0.671,1.5,1.5S205.587,113.971,204.759,113.971z" style="fill:#6E6E96;"></path>
		<path d="M234.604,113.971h-25.201c-0.828,0-1.5-0.671-1.5-1.5s0.672-1.5,1.5-1.5h25.201
			c0.828,0,1.5,0.671,1.5,1.5S235.432,113.971,234.604,113.971z" style="fill:#6E6E96;"></path>
		<path d="M198.457,121.265h-26.861c-0.828,0-1.5-0.671-1.5-1.5s0.672-1.5,1.5-1.5h26.861
			c0.828,0,1.5,0.671,1.5,1.5S199.285,121.265,198.457,121.265z" style="fill:#6E6E96;"></path>
		<path d="M209.07,121.265h-3.316c-0.828,0-1.5-0.671-1.5-1.5s0.672-1.5,1.5-1.5h3.316
			c0.828,0,1.5,0.671,1.5,1.5S209.898,121.265,209.07,121.265z" style="fill:#6E6E96;"></path>
		<path d="M234.604,121.265h-18.902c-0.828,0-1.5-0.671-1.5-1.5s0.672-1.5,1.5-1.5h18.902
			c0.828,0,1.5,0.671,1.5,1.5S235.432,121.265,234.604,121.265z" style="fill:#6E6E96;"></path>
	</g>
	<path d="M210.399,175.578c-0.337,0-0.677-0.113-0.957-0.346
		c-0.638-0.529-0.726-1.475-0.196-2.112c6.06-7.304,10.292-10.473,12.573-9.424c1.98,0.912,1.493,3.739,1.333,4.668
		c-0.402,2.335-0.364,3.467-0.285,3.979c0.898-0.487,2.48-2.067,3.214-2.801c1.294-1.294,2.491-1.719,3.564-1.276
		c0.557,0.23,0.927,0.642,1.173,1.096l3.872-1.641c0.759-0.325,1.643,0.032,1.966,0.796c0.323,0.763-0.033,1.643-0.796,1.966
		l-5.477,2.32c-0.462,0.197-0.993,0.147-1.413-0.13c-0.38-0.252-0.623-0.661-0.665-1.11c-0.03,0.029-0.062,0.06-0.094,0.093
		c-2.198,2.195-4.678,4.675-6.823,3.56c-1.989-1.031-1.72-4.299-1.193-7.359c0.1-0.578,0.127-0.974,0.126-1.237
		c-1.611,0.758-5.428,4.395-8.767,8.418C211.258,175.394,210.83,175.578,210.399,175.578z" style="opacity:0.3;fill:#6E6E96;enable-background:new    ;"></path>
	<path d="M207.08,128.232h-35.484c-0.828,0-1.5-0.672-1.5-1.5
		s0.672-1.5,1.5-1.5h35.484c0.828,0,1.5,0.671,1.5,1.5S207.908,128.232,207.08,128.232z" style="opacity:0.21;fill:#6E6E96;enable-background:new    ;"></path>
	<g style="opacity:0.21;">
		<path d="M215.369,134.398h-43.773c-0.828,0-1.5-0.672-1.5-1.5s0.672-1.5,1.5-1.5h43.773
			c0.828,0,1.5,0.672,1.5,1.5S216.197,134.398,215.369,134.398z" style="fill:#6E6E96;"></path>
		<path d="M234.604,134.398h-9.945c-0.828,0-1.5-0.672-1.5-1.5s0.672-1.5,1.5-1.5h9.945
			c0.828,0,1.5,0.672,1.5,1.5S235.432,134.398,234.604,134.398z" style="fill:#6E6E96;"></path>
		<path d="M207.412,140.369h-35.816c-0.828,0-1.5-0.672-1.5-1.5s0.672-1.5,1.5-1.5h35.816
			c0.828,0,1.5,0.672,1.5,1.5S208.24,140.369,207.412,140.369z" style="fill:#6E6E96;"></path>
		<path d="M234.604,140.369h-22.549c-0.828,0-1.5-0.672-1.5-1.5s0.672-1.5,1.5-1.5h22.549
			c0.828,0,1.5,0.672,1.5,1.5S235.432,140.369,234.604,140.369z" style="fill:#6E6E96;"></path>
		<path d="M188.512,147.666h-16.916c-0.828,0-1.5-0.672-1.5-1.5s0.672-1.5,1.5-1.5h16.916
			c0.828,0,1.5,0.672,1.5,1.5S189.34,147.666,188.512,147.666z" style="fill:#6E6E96;"></path>
		<path d="M204.759,147.666h-9.95c-0.828,0-1.5-0.672-1.5-1.5s0.672-1.5,1.5-1.5h9.95
			c0.828,0,1.5,0.672,1.5,1.5S205.587,147.666,204.759,147.666z" style="fill:#6E6E96;"></path>
		<path d="M234.604,147.666h-25.201c-0.828,0-1.5-0.672-1.5-1.5s0.672-1.5,1.5-1.5h25.201
			c0.828,0,1.5,0.672,1.5,1.5S235.432,147.666,234.604,147.666z" style="fill:#6E6E96;"></path>
		<path d="M198.457,154.96h-26.861c-0.828,0-1.5-0.672-1.5-1.5s0.672-1.5,1.5-1.5h26.861
			c0.828,0,1.5,0.672,1.5,1.5S199.285,154.96,198.457,154.96z" style="fill:#6E6E96;"></path>
		<path d="M209.07,154.96h-3.316c-0.828,0-1.5-0.672-1.5-1.5s0.672-1.5,1.5-1.5h3.316
			c0.828,0,1.5,0.672,1.5,1.5S209.898,154.96,209.07,154.96z" style="fill:#6E6E96;"></path>
		<path d="M234.604,154.96h-18.902c-0.828,0-1.5-0.672-1.5-1.5s0.672-1.5,1.5-1.5h18.902
			c0.828,0,1.5,0.672,1.5,1.5S235.432,154.96,234.604,154.96z" style="fill:#6E6E96;"></path>
	</g>
</g>
<g>
	<g>
		<polygon points="0.75,201.689 0.75,156.689 71.75,156.689 71.75,227.689 26.75,227.689" style="fill:#FAFFFA;"></polygon>
		<path d="M71.75,229.189h-45c-0.398,0-0.779-0.158-1.061-0.439l-26-26c-0.281-0.281-0.439-0.663-0.439-1.061
			v-45c0-0.828,0.671-1.5,1.5-1.5h71c0.829,0,1.5,0.672,1.5,1.5v71C73.25,228.518,72.579,229.189,71.75,229.189z M27.371,226.189
			H70.25v-68h-68v42.879L27.371,226.189z" style="fill:#CCCCDE;"></path>
	</g>
	<g>
		<polygon points="0.75,201.689 26.75,201.689 26.75,227.689" style="fill:#EDFFEB;"></polygon>
		<path d="M26.75,229.189c-0.391,0-0.774-0.152-1.061-0.439l-26-26c-0.429-0.429-0.558-1.074-0.325-1.635
			c0.232-0.561,0.779-0.926,1.386-0.926h26c0.829,0,1.5,0.672,1.5,1.5v26c0,0.606-0.365,1.153-0.926,1.386
			C27.139,229.152,26.943,229.189,26.75,229.189z M4.371,203.189l20.879,20.879v-20.879H4.371z" style="fill:#CCCCDE;"></path>
	</g>
</g>
<g>
	<path d="M202.046,243.855c0,2.181-1.782,3.963-3.963,3.963H58.113c-2.18,0-3.961-1.782-3.961-3.963v-80.612
		c0-2.179,1.783-3.962,3.961-3.962h139.97c2.181,0,3.963,1.783,3.963,3.962V243.855L202.046,243.855z" style="fill:#FFFFFF;"></path>
</g>
<g style="opacity:0.45;enable-background:new    ;">
	<path d="M197.688,158.816H57.717c-2.179,0-3.962,1.783-3.962,3.963v4.756c0-2.18,1.783-3.965,3.962-3.965
		h139.973c2.182,0,3.961,1.785,3.961,3.965v-4.756C201.648,160.604,199.868,158.816,197.688,158.816z" style="fill:#FFFFFF;"></path>
</g>
<g>
	<path d="M145.477,236.24c0,1.31-1.066,2.378-2.377,2.378h-32.585c-1.307,0-2.377-1.067-2.377-2.378v-11.95
		c0-1.308,1.069-2.375,2.377-2.375H143.1c1.311,0,2.377,1.067,2.377,2.375V236.24L145.477,236.24z" style="fill:#F0F0F0;"></path>
	<path d="M143.1,240.118h-32.585c-2.138,0-3.877-1.739-3.877-3.878v-11.95c0-2.137,1.739-3.875,3.877-3.875
		H143.1c2.138,0,3.877,1.738,3.877,3.875v11.95C146.977,238.379,145.237,240.118,143.1,240.118z M110.514,223.415
		c-0.483,0-0.877,0.393-0.877,0.875v11.95c0,0.484,0.394,0.878,0.877,0.878H143.1c0.483,0,0.877-0.394,0.877-0.878v-11.95
		c0-0.482-0.394-0.875-0.877-0.875H110.514z" style="fill:#6E6E96;"></path>
	<rect height="3" width="37.343" style="fill:#6E6E96;" y="231.462" x="108.134"></rect>
	<rect height="5.656" width="3" style="fill:#6E6E96;" y="232.962" x="125.303"></rect>
</g>
<g>
	<path d="M198.083,249.318H58.113c-3.011,0-5.461-2.45-5.461-5.463v-80.612c0-3.012,2.45-5.462,5.461-5.462
		h139.97c3.013,0,5.463,2.45,5.463,5.462v80.612C203.546,246.868,201.096,249.318,198.083,249.318z M58.113,160.781
		c-1.357,0-2.461,1.104-2.461,2.462v80.612c0,1.358,1.104,2.463,2.461,2.463h139.97c1.358,0,2.463-1.104,2.463-2.463v-80.612
		c0-1.357-1.104-2.462-2.463-2.462H58.113z" style="fill:#6E6E96;"></path>
</g>
<g>
	<path d="M203.896,151.077c0,2.364-1.938,4.299-4.301,4.299H56.865c-2.365,0-4.299-1.935-4.299-4.299V63.264
		c0-2.365,1.935-4.299,4.299-4.299h142.73c2.362,0,4.299,1.934,4.299,4.299v87.813H203.896z" style="fill:#D0D2DB;"></path>
</g>
<rect height="76.1" width="133.992" style="fill:#A3D8FF;" y="67.85" x="61.153"></rect>
<g style="opacity:0.57;enable-background:new    ;">
	<path d="M199.596,59.824H56.865c-2.365,0-4.299,1.937-4.299,4.299v2.866c0-2.364,1.935-4.299,4.299-4.299
		h142.73c2.362,0,4.299,1.935,4.299,4.299v-2.866C203.896,61.759,201.961,59.824,199.596,59.824z" style="fill:#F2F5FF;"></path>
</g>
<g>
	<path d="M199.596,156.876H56.865c-3.198,0-5.799-2.602-5.799-5.799V63.264c0-3.198,2.602-5.799,5.799-5.799
		h142.73c3.197,0,5.799,2.602,5.799,5.799v87.813c0.001,1.543-0.604,2.999-1.702,4.097
		C202.595,156.271,201.14,156.876,199.596,156.876z M56.865,60.465c-1.543,0-2.799,1.256-2.799,2.799v87.813
		c0,1.543,1.256,2.799,2.799,2.799h142.73c1.544,0,2.801-1.256,2.801-2.799l-0.002-87.813c0-1.543-1.256-2.799-2.799-2.799H56.865z" style="fill:#6E6E96;"></path>
</g>
<g style="opacity:0.15;enable-background:new    ;">
	<path d="M198.083,242.868H58.113c-2.18,0-3.961-1.783-3.961-3.964v5.811c0,2.18,1.783,3.963,3.961,3.963
		h139.97c2.181,0,3.963-1.783,3.963-3.963v-5.811C202.046,241.085,200.264,242.868,198.083,242.868z" style="fill:#6E6E96;"></path>
</g>
<g style="opacity:0.15;enable-background:new    ;">
	<rect height="5.447" width="133.992" style="fill:#6E6E96;" y="67.85" x="61.153"></rect>
</g>
<g style="opacity:0.25;enable-background:new    ;">
	<polygon points="150.428,143.949 195.212,94.004 195.212,143.949" style="fill:#FFFFFF;"></polygon>
</g>
<path d="M138.246,64.19h-18.058c-0.829,0-1.5-0.671-1.5-1.5v-3.726c0-0.829,0.671-1.5,1.5-1.5h18.058
	c0.828,0,1.5,0.671,1.5,1.5v3.726C139.746,63.519,139.074,64.19,138.246,64.19z M121.688,61.19h15.058v-0.726h-15.058V61.19z" style="fill:#6E6E96;"></path>
<g>
	<rect height="6.832" width="17.965" style="fill:#DADCE6;" y="154.062" x="64.561"></rect>
	<path d="M82.526,162.395H64.561c-0.829,0-1.5-0.672-1.5-1.5v-6.832c0-0.828,0.671-1.5,1.5-1.5h17.965
		c0.829,0,1.5,0.672,1.5,1.5v6.832C84.026,161.723,83.354,162.395,82.526,162.395z M66.061,159.395h14.965v-3.832H66.061V159.395z" style="fill:#6E6E96;"></path>
</g>
<g>
	<rect height="6.832" width="18.517" style="fill:#DADCE6;" y="154.062" x="172.126"></rect>
	<path d="M190.643,162.395h-18.517c-0.828,0-1.5-0.672-1.5-1.5v-6.832c0-0.828,0.672-1.5,1.5-1.5h18.517
		c0.828,0,1.5,0.672,1.5,1.5v6.832C192.143,161.723,191.471,162.395,190.643,162.395z M173.626,159.395h15.517v-3.832h-15.517
		V159.395z" style="fill:#6E6E96;"></path>
</g>
<g style="opacity:0.15;enable-background:new    ;">
	<rect height="2.979" width="16.244" style="fill:#6E6E96;" y="157.915" x="64.561"></rect>
</g>
<g style="opacity:0.15;enable-background:new    ;">
	<rect height="2.978" width="18.517" style="fill:#6E6E96;" y="157.917" x="172.126"></rect>
</g>
<g style="opacity:0.15;enable-background:new    ;">
	<rect height="3" width="37.343" style="fill:#6E6E96;" y="233.195" x="108.134"></rect>
</g>
<g style="opacity:0.15;enable-background:new    ;">
	<rect height="3" width="37.343" style="fill:#6E6E96;" y="222.79" x="108.134"></rect>
</g>
<g style="opacity:0.57;">
	<path d="M100.877,185.05v-4.169c0-0.846-0.804-1.537-1.788-1.537
		h-5.253c-0.983,0-1.788,0.691-1.788,1.537v4.169c0,0.843,0.805,1.536,1.788,1.536h5.253
		C100.071,186.586,100.877,185.896,100.877,185.05z" style="opacity:0.55;fill:#6E6E96;enable-background:new    ;"></path>
	<path d="M89.066,185.05v-4.169c0-0.846-0.803-1.537-1.788-1.537
		h-5.253c-0.983,0-1.787,0.691-1.787,1.537v4.169c0,0.843,0.803,1.536,1.787,1.536h5.253
		C88.263,186.586,89.066,185.896,89.066,185.05z" style="opacity:0.55;fill:#6E6E96;enable-background:new    ;"></path>
	<path d="M110.9,186.586c0.981,0,1.786-0.691,1.786-1.536v-4.169
		c0-0.846-0.804-1.537-1.786-1.537h-5.254c-0.983,0-1.788,0.691-1.788,1.537v4.169c0,0.843,0.804,1.536,1.788,1.536H110.9z" style="opacity:0.55;fill:#6E6E96;enable-background:new    ;"></path>
	<path d="M146.326,186.586c0.986,0,1.79-0.691,1.79-1.536v-4.169
		c0-0.846-0.804-1.537-1.79-1.537h-5.249c-0.985,0-1.788,0.691-1.788,1.537v4.169c0,0.843,0.803,1.536,1.788,1.536H146.326z" style="opacity:0.55;fill:#6E6E96;enable-background:new    ;"></path>
	<path d="M122.708,186.586c0.982,0,1.788-0.691,1.788-1.536v-4.169
		c0-0.846-0.805-1.537-1.788-1.537h-5.253c-0.982,0-1.788,0.691-1.788,1.537v4.169c0,0.843,0.806,1.536,1.788,1.536H122.708z" style="opacity:0.55;fill:#6E6E96;enable-background:new    ;"></path>
	<path d="M129.264,186.586h5.254c0.981,0,1.789-0.691,1.789-1.536
		v-4.169c0-0.846-0.807-1.537-1.789-1.537h-5.254c-0.983,0-1.787,0.691-1.787,1.537v4.169
		C127.477,185.896,128.281,186.586,129.264,186.586z" style="opacity:0.55;fill:#6E6E96;enable-background:new    ;"></path>
	<path d="M158.139,186.586c0.98,0,1.784-0.691,1.784-1.536v-4.169
		c0-0.846-0.805-1.537-1.784-1.537h-5.255c-0.983,0-1.788,0.691-1.788,1.537v4.169c0,0.843,0.805,1.536,1.788,1.536H158.139z" style="opacity:0.55;fill:#6E6E96;enable-background:new    ;"></path>
	<path d="M162.908,180.882v4.168c0,0.845,0.804,1.536,1.785,1.536
		h5.254c0.979,0,1.785-0.691,1.785-1.536v-4.168c0-0.846-0.803-1.538-1.785-1.538h-5.254
		C163.709,179.344,162.908,180.036,162.908,180.882z" style="opacity:0.55;fill:#6E6E96;enable-background:new    ;"></path>
	<path d="M70.215,186.586h5.253c0.984,0,1.787-0.691,1.787-1.536
		v-4.169c0-0.846-0.803-1.537-1.787-1.537h-5.253c-0.981,0-1.787,0.691-1.787,1.537v4.169
		C68.429,185.896,69.234,186.586,70.215,186.586z" style="opacity:0.55;fill:#6E6E96;enable-background:new    ;"></path>
	<path d="M186.225,179.344h-9.723c-0.982,0-1.787,0.691-1.787,1.537
		v4.169c0,0.843,0.805,1.536,1.787,1.536h9.723c0.98,0,1.787-0.691,1.787-1.536v-4.169
		C188.012,180.036,187.205,179.344,186.225,179.344z" style="opacity:0.55;fill:#6E6E96;enable-background:new    ;"></path>
	<path d="M149.615,193.939v-4.168c0-0.845-0.803-1.537-1.786-1.537
		h-4.815c-0.986,0-1.789,0.688-1.789,1.537v4.168c0,0.844,0.803,1.537,1.789,1.537h4.815
		C148.812,195.477,149.615,194.783,149.615,193.939z" style="opacity:0.55;fill:#6E6E96;enable-background:new    ;"></path>
	<path d="M128.123,193.939v-4.168c0-0.845-0.803-1.537-1.786-1.537
		h-4.819c-0.982,0-1.788,0.688-1.788,1.537v4.168c0,0.844,0.806,1.537,1.788,1.537h4.819
		C127.32,195.477,128.123,194.783,128.123,193.939z" style="opacity:0.55;fill:#6E6E96;enable-background:new    ;"></path>
	<path d="M138.869,193.939v-4.168c0-0.845-0.805-1.537-1.787-1.537
		h-4.818c-0.979,0-1.787,0.688-1.787,1.537v4.168c0,0.844,0.808,1.537,1.787,1.537h4.818
		C138.064,195.477,138.869,194.783,138.869,193.939z" style="opacity:0.55;fill:#6E6E96;enable-background:new    ;"></path>
	<path d="M171.107,193.939v-4.168c0-0.845-0.803-1.537-1.787-1.537
		h-4.818c-0.98,0-1.787,0.688-1.787,1.537v4.168c0,0.844,0.805,1.537,1.787,1.537h4.818
		C170.307,195.477,171.107,194.783,171.107,193.939z" style="opacity:0.55;fill:#6E6E96;enable-background:new    ;"></path>
	<path d="M89.277,195.477h4.82c0.982,0,1.786-0.69,1.786-1.537v-4.17
		c0-0.846-0.804-1.537-1.786-1.537h-4.82c-0.982,0-1.786,0.691-1.786,1.537v4.17C87.492,194.783,88.295,195.477,89.277,195.477z" style="opacity:0.55;fill:#6E6E96;enable-background:new    ;"></path>
	<path d="M100.025,195.477h4.819c0.983,0,1.788-0.69,1.788-1.537
		v-4.17c0-0.846-0.804-1.537-1.788-1.537h-4.819c-0.983,0-1.788,0.691-1.788,1.537v4.17
		C98.237,194.783,99.041,195.477,100.025,195.477z" style="opacity:0.55;fill:#6E6E96;enable-background:new    ;"></path>
	<path d="M153.754,195.477h4.821c0.985,0,1.788-0.69,1.788-1.537
		v-4.17c0-0.846-0.803-1.537-1.788-1.537h-4.821c-0.98,0-1.783,0.691-1.783,1.537v4.17
		C151.971,194.783,152.773,195.477,153.754,195.477z" style="opacity:0.55;fill:#6E6E96;enable-background:new    ;"></path>
	<path d="M117.378,193.939v-4.168c0-0.845-0.805-1.537-1.789-1.537
		h-4.818c-0.983,0-1.787,0.688-1.787,1.537v4.168c0,0.844,0.803,1.537,1.787,1.537h4.818
		C116.574,195.477,117.378,194.783,117.378,193.939z" style="opacity:0.55;fill:#6E6E96;enable-background:new    ;"></path>
	<path d="M68.429,193.939c0,0.844,0.804,1.537,1.787,1.537h13.031
		c0.982,0,1.787-0.69,1.787-1.537v-4.168c0-0.845-0.804-1.537-1.787-1.537H70.215c-0.981,0-1.787,0.688-1.787,1.537L68.429,193.939
		L68.429,193.939z" style="opacity:0.55;fill:#6E6E96;enable-background:new    ;"></path>
	<path d="M186.225,188.232h-10.945c-0.979,0-1.782,0.688-1.782,1.537
		v4.17c0,0.84,0.805,1.535,1.782,1.535h10.945c0.98,0,1.787-0.691,1.787-1.535v-4.17
		C188.012,188.924,187.205,188.232,186.225,188.232z" style="opacity:0.55;fill:#6E6E96;enable-background:new    ;"></path>
	<path d="M100.055,197.45h-4.82c-0.982,0-1.786,0.69-1.786,1.536
		v4.17c0,0.845,0.804,1.539,1.786,1.539h4.82c0.982,0,1.787-0.692,1.787-1.539v-4.17C101.842,198.143,101.037,197.45,100.055,197.45
		z" style="opacity:0.55;fill:#6E6E96;enable-background:new    ;"></path>
	<path d="M105.985,204.695h4.82c0.984,0,1.787-0.692,1.787-1.539
		v-4.17c0-0.844-0.803-1.536-1.787-1.536h-4.82c-0.983,0-1.787,0.69-1.787,1.536v4.17
		C104.198,204.001,105.002,204.695,105.985,204.695z" style="opacity:0.55;fill:#6E6E96;enable-background:new    ;"></path>
	<path d="M159.738,204.695h4.818c0.98,0,1.783-0.692,1.783-1.539
		v-4.17c0-0.844-0.803-1.536-1.783-1.536h-4.818c-0.983,0-1.789,0.69-1.789,1.536v4.17
		C157.949,204.001,158.755,204.695,159.738,204.695z" style="opacity:0.55;fill:#6E6E96;enable-background:new    ;"></path>
	<path d="M116.736,204.695h4.819c0.983,0,1.787-0.692,1.787-1.539
		v-4.17c0-0.844-0.803-1.536-1.787-1.536h-4.819c-0.982,0-1.787,0.69-1.787,1.536v4.17
		C114.949,204.001,115.754,204.695,116.736,204.695z" style="opacity:0.55;fill:#6E6E96;enable-background:new    ;"></path>
	<path d="M155.594,203.156v-4.17c0-0.844-0.803-1.536-1.785-1.536
		h-4.82c-0.98,0-1.783,0.69-1.783,1.536v4.17c0,0.845,0.804,1.539,1.783,1.539h4.82
		C154.789,204.695,155.594,204.001,155.594,203.156z" style="opacity:0.55;fill:#6E6E96;enable-background:new    ;"></path>
	<path d="M138.236,204.695h4.82c0.98,0,1.785-0.692,1.785-1.539
		v-4.17c0-0.844-0.805-1.536-1.785-1.536h-4.82c-0.982,0-1.788,0.69-1.788,1.536v4.17
		C136.448,204.001,137.253,204.695,138.236,204.695z" style="opacity:0.55;fill:#6E6E96;enable-background:new    ;"></path>
	<path d="M127.485,204.695h4.82c0.985,0,1.786-0.692,1.786-1.539
		v-4.17c0-0.844-0.803-1.536-1.786-1.536h-4.82c-0.982,0-1.787,0.69-1.787,1.536v4.17
		C125.699,204.001,126.503,204.695,127.485,204.695z" style="opacity:0.55;fill:#6E6E96;enable-background:new    ;"></path>
	<path d="M91.287,198.986c0-0.846-0.803-1.536-1.786-1.536H70.215
		c-0.981,0-1.787,0.69-1.787,1.536v4.166c0,0.845,0.803,1.541,1.787,1.541h19.286c0.982,0,1.786-0.692,1.786-1.541V198.986
		L91.287,198.986z" style="opacity:0.55;fill:#6E6E96;enable-background:new    ;"></path>
	<path d="M186.225,197.45h-15.562c-0.98,0-1.786,0.69-1.786,1.536
		v4.17c0,0.845,0.804,1.539,1.786,1.539h15.562c0.98,0,1.787-0.692,1.787-1.539v-4.17
		C188.012,198.143,187.205,197.45,186.225,197.45z" style="opacity:0.55;fill:#6E6E96;enable-background:new    ;"></path>
	<path d="M75.47,207.211h-5.253c-0.982,0-1.787,0.691-1.787,1.538
		v4.169c0,0.842,0.804,1.535,1.787,1.535h5.253c0.983,0,1.787-0.691,1.787-1.535v-4.169
		C77.257,207.902,76.453,207.211,75.47,207.211z" style="opacity:0.55;fill:#6E6E96;enable-background:new    ;"></path>
	<path d="M86.982,207.211h-5.254c-0.982,0-1.787,0.691-1.787,1.538
		v4.169c0,0.842,0.804,1.535,1.787,1.535h5.254c0.983,0,1.786-0.691,1.786-1.535v-4.169
		C88.769,207.902,87.964,207.211,86.982,207.211z" style="opacity:0.55;fill:#6E6E96;enable-background:new    ;"></path>
	<path d="M98.151,207.211h-5.254c-0.983,0-1.787,0.691-1.787,1.538
		v4.169c0,0.842,0.804,1.535,1.787,1.535h5.254c0.982,0,1.788-0.691,1.788-1.535v-4.169
		C99.939,207.902,99.133,207.211,98.151,207.211z" style="opacity:0.55;fill:#6E6E96;enable-background:new    ;"></path>
	<path d="M146.537,207.211h-42.023c-0.983,0-1.787,0.691-1.787,1.538
		v4.169c0,0.842,0.804,1.535,1.787,1.535h42.023c0.982,0,1.788-0.691,1.788-1.535v-4.169
		C148.325,207.902,147.521,207.211,146.537,207.211z" style="opacity:0.55;fill:#6E6E96;enable-background:new    ;"></path>
	<path d="M159.195,207.211h-6.581c-0.982,0-1.785,0.691-1.785,1.538
		v4.169c0,0.842,0.803,1.535,1.785,1.535h6.581c0.979,0,1.787-0.691,1.787-1.535v-4.169
		C160.982,207.902,160.178,207.211,159.195,207.211z" style="opacity:0.55;fill:#6E6E96;enable-background:new    ;"></path>
	<path d="M186.225,207.211h-6.582c-0.979,0-1.785,0.691-1.785,1.538
		v4.169c0,0.842,0.806,1.535,1.785,1.535h6.582c0.98,0,1.787-0.691,1.787-1.535v-4.169
		C188.012,207.902,187.205,207.211,186.225,207.211z" style="opacity:0.55;fill:#6E6E96;enable-background:new    ;"></path>
	<path d="M88.287,176.896h4.819c0.983,0,1.787-0.691,1.787-1.537
		v-4.17c0-0.842-0.804-1.537-1.787-1.537h-4.819c-0.983,0-1.787,0.692-1.787,1.537v4.17C86.5,176.204,87.304,176.896,88.287,176.896
		z" style="opacity:0.55;fill:#6E6E96;enable-background:new    ;"></path>
	<path d="M123.124,176.896h4.819c0.985,0,1.788-0.691,1.788-1.537
		v-4.17c0-0.842-0.805-1.537-1.788-1.537h-4.819c-0.984,0-1.785,0.692-1.785,1.537v4.17
		C121.338,176.204,122.14,176.896,123.124,176.896z" style="opacity:0.55;fill:#6E6E96;enable-background:new    ;"></path>
	<path d="M181.188,176.896h4.816c0.982,0,1.788-0.691,1.788-1.537
		v-4.17c0-0.842-0.806-1.537-1.788-1.537h-4.816c-0.981,0-1.787,0.692-1.787,1.537v4.17
		C179.398,176.204,180.202,176.896,181.188,176.896z" style="opacity:0.55;fill:#6E6E96;enable-background:new    ;"></path>
	<path d="M134.736,176.896h4.814c0.985,0,1.789-0.691,1.789-1.537
		v-4.17c0-0.842-0.804-1.537-1.789-1.537h-4.814c-0.98,0-1.787,0.692-1.787,1.537v4.17
		C132.949,176.204,133.755,176.896,134.736,176.896z" style="opacity:0.55;fill:#6E6E96;enable-background:new    ;"></path>
	<path d="M111.512,176.896h4.818c0.981,0,1.787-0.691,1.787-1.537
		v-4.17c0-0.842-0.803-1.537-1.787-1.537h-4.818c-0.984,0-1.787,0.692-1.787,1.537v4.17
		C109.725,176.204,110.528,176.896,111.512,176.896z" style="opacity:0.55;fill:#6E6E96;enable-background:new    ;"></path>
	<path d="M169.573,176.896h4.817c0.98,0,1.789-0.691,1.789-1.537
		v-4.17c0-0.842-0.808-1.537-1.789-1.537h-4.817c-0.981,0-1.788,0.692-1.788,1.537v4.17
		C167.785,176.204,168.593,176.896,169.573,176.896z" style="opacity:0.55;fill:#6E6E96;enable-background:new    ;"></path>
	<path d="M146.35,176.896h4.818c0.982,0,1.787-0.691,1.787-1.537
		v-4.17c0-0.842-0.805-1.537-1.787-1.537h-4.818c-0.979,0-1.787,0.692-1.787,1.537v4.17
		C144.562,176.204,145.368,176.896,146.35,176.896z" style="opacity:0.55;fill:#6E6E96;enable-background:new    ;"></path>
	<path d="M157.961,176.896h4.818c0.98,0,1.785-0.691,1.785-1.537
		v-4.17c0-0.842-0.804-1.537-1.785-1.537h-4.818c-0.982,0-1.788,0.692-1.788,1.537v4.17
		C156.175,176.204,156.979,176.896,157.961,176.896z" style="opacity:0.55;fill:#6E6E96;enable-background:new    ;"></path>
	<path d="M99.899,176.896h4.819c0.984,0,1.788-0.691,1.788-1.537
		v-4.17c0-0.842-0.804-1.537-1.788-1.537h-4.819c-0.984,0-1.787,0.692-1.787,1.537v4.17
		C98.112,176.204,98.915,176.896,99.899,176.896z" style="opacity:0.55;fill:#6E6E96;enable-background:new    ;"></path>
	<path d="M70.098,176.896h11.48c0.983,0,1.787-0.691,1.787-1.537
		v-4.17c0-0.842-0.804-1.537-1.787-1.537h-11.48c-0.982,0-1.788,0.692-1.788,1.537v4.17
		C68.31,176.204,69.114,176.896,70.098,176.896z" style="opacity:0.55;fill:#6E6E96;enable-background:new    ;"></path>
	<path d="M172.62,207.211h-6.58c-0.981,0-1.786,0.691-1.786,1.538
		v4.169c0,0.842,0.803,1.535,1.786,1.535h6.58c0.981,0,1.79-0.691,1.79-1.535v-4.169C174.41,207.902,173.604,207.211,172.62,207.211
		z" style="opacity:0.55;fill:#6E6E96;enable-background:new    ;"></path>
</g>
<g>
	<rect height="7.816" width="9.318" style="fill:#FFE95F;" y="226.699" x="169.445"></rect>
	<path d="M178.764,236.016h-9.318c-0.828,0-1.5-0.672-1.5-1.5v-7.816c0-0.828,0.672-1.5,1.5-1.5h9.318
		c0.828,0,1.5,0.672,1.5,1.5v7.816C180.264,235.344,179.592,236.016,178.764,236.016z M170.945,233.016h6.318v-4.816h-6.318V233.016
		z" style="fill:#6E6E96;"></path>
</g>
<g>
	<rect height="7.816" width="9.32" style="fill:#A6FFC9;" y="226.699" x="184.752"></rect>
	<path d="M194.072,236.016h-9.32c-0.828,0-1.5-0.672-1.5-1.5v-7.816c0-0.828,0.672-1.5,1.5-1.5h9.32
		c0.828,0,1.5,0.672,1.5,1.5v7.816C195.572,235.344,194.9,236.016,194.072,236.016z M186.252,233.016h6.32v-4.816h-6.32V233.016z" style="fill:#6E6E96;"></path>
</g>
<g style="opacity:0.25;enable-background:new    ;">
	<path d="M199.311,151.077H56.58c-2.365,0-4.3-1.937-4.3-4.3v4.3c0,2.364,1.935,4.299,4.3,4.299h142.73
		c2.361,0,4.299-1.935,4.299-4.299v-4.3C203.609,149.141,201.674,151.077,199.311,151.077z" style="fill:#6E6E96;"></path>
</g>
<g style="opacity:0.25;enable-background:new    ;">
	<polygon points="109.152,143.949 174.646,73.297 165.048,73.297 99.553,143.949" style="fill:#FFFFFF;"></polygon>
</g>
<g style="opacity:0.25;enable-background:new    ;">
	<polygon points="195.145,73.297 129.65,143.949 195.212,143.949" style="fill:#FFFFFF;"></polygon>
</g>
<path d="M195.145,145.45H61.153c-0.829,0-1.5-0.672-1.5-1.5v-76.1c0-0.829,0.671-1.5,1.5-1.5h133.992
	c0.828,0,1.5,0.671,1.5,1.5v76.1C196.645,144.778,195.973,145.45,195.145,145.45z M62.653,142.45h130.992v-73.1H62.653V142.45z" style="fill:#6E6E96;"></path>
<g>
	<g>
		<path d="M109.988,52.353c0-11.95,8.304-21.64,18.547-21.64c10.242,0,18.544,9.69,18.544,21.64" style="fill:#DDA0E8;"></path>
		<path d="M148.579,52.353h-3c0-11.105-7.646-20.14-17.044-20.14c-9.4,0-17.047,9.035-17.047,20.14h-3
			c0-12.759,8.993-23.14,20.047-23.14C139.588,29.213,148.579,39.594,148.579,52.353z" style="fill:#6E6E96;"></path>
	</g>
	<path d="M113.96,48.374c0-7.886,5.103-14.28,11.398-14.28c6.296,0,11.399,6.396,11.399,14.28" style="fill:#F6C2FF;"></path>
	<g>
		<path d="M156.521,73.468c0-15.456-12.53-27.989-27.987-27.989c-15.458,0-27.99,12.534-27.99,27.989
			c0,8.75,4.016,16.56,10.301,21.69c1.971,10.307,9.413,17.977,18.297,17.977c9.241,0,16.918-8.293,18.502-19.227
			C153.105,88.8,156.521,81.536,156.521,73.468z" style="fill:#DDA0E8;"></path>
		<path d="M129.143,114.635c-9.33,0-17.353-7.646-19.664-18.662c-6.638-5.622-10.435-13.793-10.435-22.505
			c0-16.26,13.229-29.489,29.49-29.489c16.26,0,29.487,13.229,29.487,29.489c0,7.952-3.264,15.638-8.972,21.174
			C147.161,106.259,138.857,114.635,129.143,114.635z M128.534,46.979c-14.607,0-26.49,11.883-26.49,26.489
			c0,7.988,3.554,15.471,9.75,20.528l0.422,0.345l0.102,0.536c1.887,9.867,8.805,16.758,16.824,16.758
			c8.354,0,15.512-7.545,17.018-17.941l0.075-0.521l0.385-0.359c5.418-5.068,8.401-11.938,8.401-19.345
			C155.021,58.862,143.14,46.979,128.534,46.979z" style="fill:#6E6E96;"></path>
	</g>
	<path d="M148.988,70.448c0-12.049-9.809-21.813-21.902-21.813c-12.093,0-21.9,9.764-21.9,21.813
		c0,6.819,3.145,12.901,8.061,16.9c1.544,8.035,7.366,14.01,14.318,14.01c7.23,0,13.238-6.462,14.478-14.984
		C146.314,82.393,148.988,76.735,148.988,70.448z" style="fill:#F6C2FF;"></path>
	<path d="M133.523,80.468c0,0,9.711,7.244,6.809,11.707c0,0,5.05-3.065,2.902-7
		C140.875,80.855,133.523,80.468,133.523,80.468z" style="fill:#DDA0E8;"></path>
	<ellipse ry="7.492" rx="5.609" cy="66.636" cx="118.244" style="fill:#F9D4FF;"></ellipse>
	<g>
		<path d="M163.029,108.8c-0.828,0-1.5-0.671-1.5-1.5V97.194l-9.413-9.413c-0.586-0.585-0.586-1.536,0-2.121
			c0.586-0.586,1.535-0.586,2.121,0l9.853,9.853c0.281,0.281,0.439,0.663,0.439,1.061V107.3
			C164.529,108.128,163.857,108.8,163.029,108.8z" style="fill:#6E6E96;"></path>
		<path d="M173.967,86.511c-0.514,0-1.015-0.265-1.295-0.74l-6.343-10.803h-9.808c-0.828,0-1.5-0.671-1.5-1.5
			s0.672-1.5,1.5-1.5h10.666c0.532,0,1.024,0.282,1.294,0.74l6.778,11.543c0.419,0.714,0.18,1.634-0.534,2.053
			C174.486,86.444,174.226,86.511,173.967,86.511z" style="fill:#6E6E96;"></path>
		<path d="M169.768,59.423c-0.384,0-0.768-0.146-1.061-0.439l-7.992-7.993l-7.959,7.844
			c-0.589,0.583-1.539,0.575-2.121-0.016c-0.581-0.59-0.574-1.54,0.016-2.121l9.02-8.889c0.588-0.579,1.531-0.575,2.113,0.008
			l9.045,9.046c0.586,0.586,0.586,1.536,0,2.121C170.535,59.276,170.151,59.423,169.768,59.423z" style="fill:#6E6E96;"></path>
	</g>
	<g>
		<path d="M93.354,108.8c-0.829,0-1.5-0.671-1.5-1.5V96.573c0-0.398,0.158-0.779,0.439-1.061l9.852-9.853
			c0.586-0.586,1.535-0.586,2.121,0c0.586,0.585,0.586,1.535,0,2.121l-9.413,9.413V107.3C94.854,108.128,94.183,108.8,93.354,108.8z" style="fill:#6E6E96;"></path>
		<path d="M82.416,86.511c-0.258,0-0.52-0.066-0.758-0.207c-0.714-0.42-0.953-1.339-0.534-2.053l6.782-11.543
			c0.27-0.458,0.762-0.74,1.293-0.74h10.663c0.829,0,1.5,0.671,1.5,1.5s-0.671,1.5-1.5,1.5h-9.804L83.71,85.771
			C83.431,86.246,82.93,86.511,82.416,86.511z" style="fill:#6E6E96;"></path>
		<path d="M86.619,59.423c-0.384,0-0.768-0.146-1.061-0.439c-0.586-0.586-0.586-1.536,0-2.122l9.043-9.046
			c0.583-0.583,1.527-0.586,2.114-0.008l9.021,8.889c0.59,0.582,0.597,1.531,0.016,2.121c-0.581,0.59-1.531,0.598-2.121,0.016
			l-7.96-7.844l-7.99,7.993C87.387,59.276,87.003,59.423,86.619,59.423z" style="fill:#6E6E96;"></path>
	</g>
	<path d="M138.98,35.974c-0.384,0-0.768-0.146-1.061-0.439c-0.586-0.586-0.586-1.536,0-2.121l6.634-6.633
		c0.586-0.586,1.535-0.586,2.121,0s0.586,1.536,0,2.121l-6.634,6.633C139.748,35.828,139.364,35.974,138.98,35.974z" style="fill:#6E6E96;"></path>
	<path d="M118.087,35.974c-0.384,0-0.768-0.146-1.061-0.439l-6.896-6.898c-0.585-0.586-0.585-1.536,0-2.122
		c0.586-0.585,1.536-0.585,2.122,0l6.896,6.898c0.585,0.586,0.585,1.536,0,2.122C118.854,35.828,118.471,35.974,118.087,35.974z" style="fill:#6E6E96;"></path>
</g>
</svg>
