<?xml version="1.0" encoding="UTF-8"?>
<svg width="136px" height="136px" viewBox="0 0 136 136" version="1.1" xmlns="http://www.w3.org/2000/svg" xmlns:xlink="http://www.w3.org/1999/xlink">
    <title>user-pinzhi-man</title>
    <defs>
        <circle id="path-1" cx="68" cy="68" r="68"></circle>
        <linearGradient x1="50%" y1="0%" x2="50%" y2="100%" id="linearGradient-3">
            <stop stop-color="#424242" offset="0%"></stop>
            <stop stop-color="#151115" offset="100%"></stop>
        </linearGradient>
    </defs>
    <g id="页面-1" stroke="none" stroke-width="1" fill="none" fill-rule="evenodd">
        <g id="默认头像" transform="translate(-100.000000, -1825.000000)">
            <g id="user-pinzhi-man" transform="translate(100.000000, 1825.000000)">
                <mask id="mask-2" fill="white">
                    <use xlink:href="#path-1"></use>
                </mask>
                <use id="Oval" fill="#E1E8FA" xlink:href="#path-1"></use>
                <rect id="Rectangle" fill="#F3B996" mask="url(#mask-2)" x="57.878449" y="62.7348837" width="19.2779623" height="19.0883721"></rect>
                <path d="M115,84 C117.209139,84 119,85.790861 119,88 L119,134 C119,136.209139 117.209139,138 115,138 L107,138 C104.790861,138 103,136.209139 103,134 L103,88 C103,85.790861 104.790861,84 107,84 L115,84 Z M31,84 C33.209139,84 35,85.790861 35,88 L35,134 C35,136.209139 33.209139,138 31,138 L23,138 C20.790861,138 19,136.209139 19,134 L19,88 C19,85.790861 20.790861,84 23,84 L31,84 Z" id="形状" fill="#3E70AB" mask="url(#mask-2)"></path>
                <path d="M57.685424,75.3594355 L65.764,81.9999592 L70.299,81.9999592 L77.2293744,75.4081611 C77.598808,75.0567197 78.1735006,75.0395178 78.5632928,75.3682338 L86.2176744,81.8232558 L86.108,81.9999592 L104,82 C106.209139,82 108,83.790861 108,86 L108,134 C108,136.209139 106.209139,138 104,138 L34,138 C31.790861,138 30,136.209139 30,134 L30,86 C30,83.790861 31.790861,82 34,82 L49.894,81.9999592 L49.7823256,81.8232558 L56.3522578,75.4160464 C56.7172454,75.0600987 57.2915752,75.0357107 57.685424,75.3594355 Z" id="路径" fill="#3068AC" mask="url(#mask-2)"></path>
                <rect id="矩形" fill="#BBCBDE" mask="url(#mask-2)" x="30" y="107" width="78" height="29"></rect>
                <rect id="矩形" fill="#D8D8D8" mask="url(#mask-2)" x="86" y="100" width="17" height="3"></rect>
                <rect id="矩形备份-3" fill-opacity="0.2" fill="#FFFFFF" mask="url(#mask-2)" x="71" y="84" width="1" height="54"></rect>
                <path d="M57.685424,75.3594355 L65.764,80.9999592 L70.299,80.9999592 L77.2293744,75.4081611 C77.598808,75.0567197 78.1735006,75.0395178 78.5632928,75.3682338 L86.2176744,81.8232558 L86.108,81.9999592 C80.8690679,87.5771799 76.5198896,90.3657902 73.0604651,90.3657902 C71.3978183,90.3657902 70.299,81.8232558 68,81.8232558 C66.7749422,81.8232558 65.8241274,84.2488712 64.9995549,86.5150485 L65,138 L64,138 L64.0000038,89.1313461 C63.6658696,89.8761612 63.344451,90.3657902 63.0223256,90.3657902 C57.6335152,90.3657902 53.2574067,87.5771799 49.894,81.9999592 L49.7823256,81.8232558 L56.3522578,75.4160464 C56.7172454,75.0600987 57.2915752,75.0357107 57.685424,75.3594355 Z" id="路径" fill="#2858A6" mask="url(#mask-2)"></path>
                <circle id="椭圆形备份-2" fill="#BBCBDD" mask="url(#mask-2)" cx="68" cy="89" r="2"></circle>
                <circle id="椭圆形备份-3" fill="#3C5B90" mask="url(#mask-2)" cx="68" cy="121" r="2"></circle>
                <rect id="Rectangle-Copy-5备份" fill="url(#linearGradient-3)" mask="url(#mask-2)" x="48.1572093" y="33.6232558" width="40" height="12" rx="4"></rect>
                <path d="M51.7581395,27.4883721 L77.1572093,27.4883721 C79.3663483,27.4883721 81.1572093,29.2792331 81.1572093,31.4883721 L81.1572093,41.6232558 C81.1572093,43.8323948 79.3663483,45.6232558 77.1572093,45.6232558 L51.7581395,45.6232558 C49.5490005,45.6232558 47.7581395,43.8323948 47.7581395,41.6232558 L47.7581395,31.4883721 C47.7581395,29.2792331 49.5490005,27.4883721 51.7581395,27.4883721 Z" id="Rectangle" fill="#282628" mask="url(#mask-2)"></path>
                <path d="M52.8186047,38.6093023 L52.8186047,48.655814 L46.6976744,48.655814 C44.4885354,48.655814 42.6976744,46.864953 42.6976744,44.655814 L42.6976744,42.6093023 C42.6976744,40.4001633 44.4885354,38.6093023 46.6976744,38.6093023 L52.8186047,38.6093023 Z M89.3023256,38.6093023 C91.444521,38.6093023 93.1934045,40.2932708 93.2974303,42.409662 L93.3023256,42.6093023 L93.3023256,44.655814 C93.3023256,46.7980093 91.6183571,48.5468928 89.5019659,48.6509186 L89.3023256,48.655814 L83.1813953,48.655814 L83.1813953,38.6093023 L89.3023256,38.6093023 Z" id="形状" fill="#F6BE9D" mask="url(#mask-2)"></path>
                <path d="M83.1330233,38.6093023 L89.2539535,38.6093023 L89.2539535,38.6093023 L89.2539535,48.655814 L83.1330233,48.655814 C80.9238843,48.655814 79.1330233,46.864953 79.1330233,44.655814 L79.1330233,42.6093023 C79.1330233,40.4001633 80.9238843,38.6093023 83.1330233,38.6093023 Z" id="Rectangle-Copy-14" fill="#E9925F" mask="url(#mask-2)" transform="translate(84.193488, 43.632558) scale(-1, 1) translate(-84.193488, -43.632558) "></path>
                <path d="M50.7460465,38.6093023 L56.8669767,38.6093023 L56.8669767,38.6093023 L56.8669767,48.655814 L50.7460465,48.655814 C48.5369075,48.655814 46.7460465,46.864953 46.7460465,44.655814 L46.7460465,42.6093023 C46.7460465,40.4001633 48.5369075,38.6093023 50.7460465,38.6093023 Z" id="Rectangle-Copy-13" fill="#E9925F" mask="url(#mask-2)"></path>
                <path d="M65.975814,68.7627907 C60.9153488,68.7627907 52.8186047,59.7209302 51.8065116,57.7116279 C51.1317829,56.372093 50.7944186,54.3627907 50.7944186,51.6837209 L50.7944186,24.5581395 C50.7944186,22.3387255 52.6069365,20.5395349 54.8427907,20.5395349 L81.1572093,20.5395349 C83.3253103,20.5395349 85.0953431,22.2313358 85.2006269,24.3575706 L85.2055814,24.5581395 L85.2055814,51.6837209 C85.2055814,54.3627907 84.8682171,56.372093 84.1934884,57.7116279 C83.2148156,59.6545811 75.6116509,68.1733168 70.5350582,68.7337921 C70.5166126,68.7534028 70.4988706,68.7627907 70.4814057,68.7627907 L65.975814,68.7627907 Z" id="Path-Copy-2" fill="#FFD0B6" mask="url(#mask-2)"></path>
                <path d="M59.7722669,56.9302326 L77.8090728,56.9302326 C78.3613826,56.9301871 78.8091182,57.3779227 78.8091182,57.9302326 C78.8091182,58.0239555 78.7959431,58.1172132 78.7699797,58.2072681 C77.495677,62.6272289 74.1692497,64.8372093 68.7906977,64.8372093 C63.4121273,64.8372093 60.0856956,62.6272138 58.8114026,58.2072228 C58.6584413,57.6765595 58.9646003,57.1223562 59.4952557,56.9693671 C59.5853028,56.9434063 59.6785522,56.9302326 59.7722669,56.9302326 Z" id="Rectangle" fill="#FF9090" mask="url(#mask-2)"></path>
                <path d="M68.7906977,60.9418605 C72.1563154,60.9418605 74.7184022,61.3745309 76.4769582,62.2398719 C74.7182918,63.9719057 72.1562428,64.8372093 68.7906977,64.8372093 C65.4246429,64.8372093 62.8623278,63.9716436 61.1037521,62.2405123 C62.8628227,61.3745597 65.424968,60.9418605 68.7906977,60.9418605 Z" id="路径" fill="#E64646" mask="url(#mask-2)"></path>
                <path d="M65.595485,10.5438953 L67.996011,10.5007804 L67.996011,10.5007804 L68.796749,10.5069268 C69.1885221,10.5130839 69.7236726,10.5233458 70.4022008,10.5377124 C80.7365561,10.7565236 89,19.1967834 89,29.5334549 L89,33 L47,33 L47,29.5395878 C47,19.2038169 55.2620568,10.7639466 65.595485,10.5438953 Z" id="矩形备份-2" fill="#386AA9" mask="url(#mask-2)"></path>
                <path d="M66,11 L66.0003218,11.3412977 C63.7449481,12.1383125 62.1084146,14.2455067 62.0051787,16.7484232 L62,17 L62,33 L60,33 L60,17 C60,13.7616031 62.5655749,11.1224282 65.7750617,11.0041385 L66,11 Z M70.0003218,11 L70.2252601,11.0041385 C73.3601077,11.1196773 75.8806445,13.6402141 75.9961833,16.7750617 L76.0003218,17 L76.0003218,32 L74.0003218,32 L74.0003218,17 L73.9951431,16.7484232 C73.8953484,14.3289373 72.3627723,12.2792318 70.2234407,11.4253326 L70,11.3412977 L70.0003218,11 Z" id="形状" fill="#BBCBDE" mask="url(#mask-2)"></path>
                <rect id="矩形" fill="#BBCADD" mask="url(#mask-2)" x="65" y="9" width="6" height="3" rx="1.5"></rect>
                <path d="M46.6965866,32.7363003 C56.4740158,31.235641 63.5751536,30.4853113 68,30.4853113 C72.4248475,30.4853113 79.5259877,31.2356413 89.3034206,32.7363014 C90.2793978,32.8861059 91,33.7257457 91,34.7131528 L91,38 C91,39.1045695 90.1045695,40 89,40 C87.7351938,40 86.4703876,40 85.2055814,40 C81.1572093,40 77.0256545,33 68.1572093,33 C59.2887641,33 55.2814687,40 50.7944186,40 C49.5296124,40 48.2648062,40 47,40 C45.8954305,40 45,39.1045695 45,38 L45,34.7131666 C44.9999849,33.7257474 45.720596,32.8860973 46.6965866,32.7363003 Z" id="矩形" fill="#BBCADD" mask="url(#mask-2)"></path>
            </g>
        </g>
    </g>
</svg>